<?xml version="1.0" standalone="no"?>
<!DOCTYPE svg PUBLIC "-//W3C//DTD SVG 20010904//EN"
 "http://www.w3.org/TR/2001/REC-SVG-20010904/DTD/svg10.dtd">
<svg version="1.0" xmlns="http://www.w3.org/2000/svg"
 width="400.000000pt" height="400.000000pt" viewBox="0 0 400.000000 400.000000"
 preserveAspectRatio="xMidYMid meet">
<metadata>
Created by potrace 1.14, written by Peter Selinger 2001-2017
</metadata>
<g transform="translate(0.000000,400.000000) scale(0.100000,-0.100000)"
fill="#000000" stroke="none">
<path d="M2317 3584 c-5 -6 -121 -25 -172 -29 -16 -1 -42 2 -57 6 -16 4 -30 3
-34 -2 -4 -7 -10 -6 -18 0 -6 6 -27 8 -46 5 -19 -2 -53 -7 -75 -10 -22 -2 -60
-12 -85 -20 -25 -9 -53 -16 -62 -17 -9 -1 -14 -5 -12 -9 3 -4 -4 -8 -15 -8
-12 0 -21 -4 -21 -8 0 -4 -9 -8 -20 -9 -11 -1 -27 -9 -36 -17 -14 -15 -28 -20
-46 -17 -5 0 -8 -3 -8 -9 0 -5 -7 -10 -15 -10 -8 0 -15 -4 -15 -10 0 -5 -6
-10 -13 -10 -8 0 -24 -9 -37 -20 -13 -11 -27 -20 -31 -20 -11 0 -163 -102
-167 -112 -2 -4 -8 -8 -13 -8 -9 0 -37 -21 -71 -52 -10 -10 -21 -18 -24 -18
-4 0 -24 -18 -45 -40 -22 -22 -43 -40 -49 -40 -5 0 -10 -3 -10 -7 0 -5 -21
-29 -46 -55 -26 -27 -44 -48 -41 -48 3 0 -8 -15 -24 -32 -17 -18 -40 -50 -51
-70 -12 -21 -25 -38 -29 -38 -3 0 -12 -13 -19 -30 -7 -16 -16 -30 -21 -30 -5
0 -8 -3 -7 -7 1 -5 -13 -38 -31 -74 -27 -57 -30 -70 -21 -95 6 -16 11 -29 10
-29 -1 0 1 -17 5 -37 4 -21 11 -38 17 -38 5 0 7 -4 4 -8 -3 -5 -2 -22 3 -38 5
-18 2 -46 -6 -74 -44 -143 -29 -241 43 -275 21 -10 32 -21 28 -27 -15 -24 -21
-163 -10 -208 4 -14 9 -36 12 -49 15 -72 101 -178 168 -206 24 -10 40 -26 51
-52 34 -78 77 -161 98 -186 12 -14 30 -35 39 -46 10 -12 18 -26 18 -31 0 -6 6
-10 13 -10 7 0 20 -8 28 -17 30 -34 89 -83 99 -83 5 0 10 -4 10 -10 0 -5 7
-10 15 -10 9 0 18 -7 21 -15 4 -8 12 -15 20 -15 8 0 14 -5 14 -11 0 -5 5 -7
10 -4 20 13 9 -17 -15 -39 -14 -13 -25 -28 -25 -34 0 -6 -4 -12 -8 -14 -8 -3
-72 -104 -72 -113 0 -2 -14 -27 -30 -55 -17 -28 -28 -55 -25 -60 3 -4 0 -10
-5 -12 -14 -4 -20 -57 -9 -86 6 -16 5 -22 -5 -22 -7 0 -19 -12 -27 -27 -7 -16
-28 -51 -46 -79 -18 -29 -29 -54 -26 -58 4 -3 1 -6 -5 -6 -7 0 -12 -7 -12 -15
0 -8 -5 -15 -10 -15 -6 0 -9 -3 -8 -7 1 -5 -10 -32 -25 -60 -15 -29 -28 -56
-28 -60 0 -5 -8 -16 -16 -25 -9 -10 -13 -18 -9 -18 4 0 -2 -13 -14 -30 -12
-16 -18 -30 -14 -30 4 0 -1 -9 -11 -20 -10 -11 -15 -20 -12 -20 4 0 -2 -17
-13 -37 -10 -21 -32 -73 -49 -116 l-29 -77 933 0 932 0 -7 40 c-4 22 -5 40 -2
40 2 0 0 6 -6 13 -6 7 -13 24 -16 37 -7 38 -10 48 -72 190 -15 36 -34 73 -42
83 -8 9 -12 17 -8 17 4 0 -2 9 -12 20 -10 11 -25 33 -33 48 -18 34 -31 50 -99
125 -30 33 -55 62 -55 66 0 3 -3 11 -6 16 -3 6 -7 26 -8 45 -4 48 -6 62 -15
85 -11 28 -40 85 -56 112 -16 24 -13 31 16 37 60 12 85 19 90 27 2 4 11 6 19
2 8 -3 15 0 15 6 0 6 8 11 19 11 10 0 30 9 44 20 14 11 30 20 37 20 6 0 18 7
26 15 18 17 50 20 59 5 4 -6 11 -8 16 -5 5 4 9 1 9 -6 0 -7 3 -10 6 -6 3 3 18
1 32 -4 30 -11 149 -14 199 -5 33 6 97 40 121 63 7 7 18 13 24 13 6 0 9 3 5 6
-3 3 4 16 16 28 27 25 50 74 42 87 -4 5 -2 9 3 9 5 0 9 8 9 18 0 34 3 40 20
38 48 -7 191 125 272 249 14 22 32 46 38 53 7 7 13 20 13 28 0 8 5 14 10 14 6
0 10 9 10 19 0 11 5 23 10 26 6 4 8 11 5 16 -4 5 -1 9 4 9 6 0 10 3 10 8 -1 4
0 10 1 15 1 4 4 12 5 17 1 6 3 11 5 13 1 1 3 9 5 17 2 8 13 49 25 90 12 41 23
84 25 95 1 11 4 21 5 23 1 1 3 10 4 20 1 9 5 23 9 30 5 6 6 16 2 21 -3 5 -1
12 4 15 5 4 8 14 6 24 -1 9 1 22 6 27 4 6 8 20 8 30 0 11 3 47 6 80 3 33 6 65
7 70 2 17 -13 129 -19 150 -3 11 -7 27 -7 35 -10 90 -108 286 -188 374 -17 18
-19 25 -17 42 0 4 -3 10 -8 13 -4 3 -24 36 -43 74 -19 37 -38 67 -42 67 -5 0
-8 7 -8 15 0 8 -5 15 -11 15 -5 0 -8 4 -5 8 3 5 -4 14 -14 22 -10 8 -17 16
-15 20 2 3 -19 26 -47 51 -28 24 -58 51 -67 59 -42 39 -176 90 -275 105 -48 7
-65 15 -71 34 -3 10 -18 24 -33 32 -15 8 -29 16 -32 19 -6 6 -130 65 -139 66
-3 0 -18 6 -34 12 -15 7 -39 14 -52 16 -14 3 -29 7 -34 11 -19 11 -255 28
-264 19z m186 -641 c-3 -77 -9 -146 -29 -308 -2 -22 -9 -44 -14 -49 -11 -11
-11 -9 -15 69 -3 82 -4 90 -17 108 -7 10 -24 19 -38 22 -31 6 -80 -3 -80 -16
0 -9 -18 -33 -55 -74 -23 -25 -44 -35 -102 -49 -10 -3 -18 -5 -18 -6 0 -1 -8
-3 -17 -5 -24 -4 -16 25 21 79 17 25 31 49 31 55 0 6 4 11 8 11 5 0 15 12 23
28 15 30 24 41 103 126 31 32 57 63 59 69 2 6 21 10 43 9 21 -1 46 3 54 8 28
17 45 -13 43 -77z m91 -910 c16 -18 33 -33 38 -33 5 0 26 -13 46 -29 20 -16
44 -31 52 -33 16 -3 62 37 53 46 -4 3 -2 6 3 6 17 0 29 -15 28 -35 0 -11 3
-28 8 -37 5 -10 10 -33 11 -53 2 -19 6 -38 10 -41 8 -8 -1 -24 -12 -24 -4 0
-17 8 -29 18 -11 9 -39 33 -62 52 -24 19 -53 45 -65 57 -13 12 -25 19 -28 17
-16 -17 -116 63 -122 98 -7 37 34 32 69 -9z"/>
</g>
</svg>
